<svg width="33" height="30" viewBox="0 0 33 30" fill="none" xmlns="http://www.w3.org/2000/svg">
<mask id="mask0_169_7957" style="mask-type:luminance" maskUnits="userSpaceOnUse" x="4" y="1" width="25" height="22">
<path fill-rule="evenodd" clip-rule="evenodd" d="M4.24316 1.25H28.8912V22.935H4.24316V1.25Z" fill="white"/>
</mask>
<g mask="url(#mask0_169_7957)">
<path fill-rule="evenodd" clip-rule="evenodd" d="M16.5652 3.125C11.908 3.125 8.66191 6.5475 8.66191 9.61875C8.66191 12.2175 7.89303 13.4187 7.21343 14.4788C6.66842 15.33 6.23801 16.0025 6.23801 17.4637C6.46054 19.8212 8.11956 21.06 16.5652 21.06C24.9643 21.06 26.6753 19.7663 26.8965 17.3825C26.8925 16.0025 26.4621 15.33 25.9171 14.4788C25.2375 13.4187 24.4686 12.2175 24.4686 9.61875C24.4686 6.5475 21.2225 3.125 16.5652 3.125ZM16.5652 22.935C10.3343 22.935 4.70291 22.5225 4.24318 17.5438C4.23918 15.4837 4.90946 14.4362 5.50111 13.5138C6.09942 12.5787 6.66309 11.6975 6.66309 9.61875C6.66309 5.5775 10.6421 1.25 16.5652 1.25C22.4884 1.25 26.4674 5.5775 26.4674 9.61875C26.4674 11.6975 27.0311 12.5787 27.6294 13.5138C28.221 14.4362 28.8913 15.4837 28.8913 17.4637C28.4262 22.5225 22.7962 22.935 16.5652 22.935Z" fill="white"/>
</g>
<path fill-rule="evenodd" clip-rule="evenodd" d="M16.5001 28.125H16.4975C15.0037 28.1238 13.5899 27.5063 12.5172 26.385C12.148 26.0013 12.1814 25.4075 12.5918 25.0625C13.0022 24.715 13.6338 24.7463 14.0029 25.1325C14.6932 25.8538 15.5794 26.25 16.4988 26.25H16.5001C17.4236 26.25 18.3137 25.8538 19.0053 25.1313C19.3758 24.7475 20.0074 24.7163 20.4165 25.0625C20.8269 25.4088 20.8602 26.0025 20.4911 26.3863C19.4144 27.5075 17.9979 28.125 16.5001 28.125Z" fill="white"/>
</svg>
