<svg width="111" height="116" viewBox="0 0 111 116" fill="none" xmlns="http://www.w3.org/2000/svg">
<path fill-rule="evenodd" clip-rule="evenodd" d="M82.7265 58.7081C81.0245 58.7081 79.5399 57.3982 79.2948 55.5857C79.0312 53.5992 80.3493 51.7674 82.2502 51.4919C87.0602 50.7862 90.6908 46.4266 90.7 41.3419C90.7 36.3007 87.2405 32.0377 82.4722 31.2209C80.5852 30.8971 79.304 29.0314 79.6139 27.0546C79.9284 25.0777 81.6998 23.7534 83.6007 24.0676C91.7314 25.4644 97.6375 32.7337 97.6375 41.3516C97.619 50.0274 91.4169 57.4707 83.2075 58.6742C83.0457 58.6984 82.8838 58.7081 82.7265 58.7081Z" fill="#D2091E"/>
<mask id="mask0_96_1447" style="mask-type:luminance" maskUnits="userSpaceOnUse" x="87" y="67" width="19" height="23">
<path fill-rule="evenodd" clip-rule="evenodd" d="M87.7739 67.6746H105.321V89.5675H87.7739V67.6746Z" fill="white"/>
</mask>
<g mask="url(#mask0_96_1447)">
<path fill-rule="evenodd" clip-rule="evenodd" d="M96.4841 89.5675C95.0873 89.5675 93.7692 88.6781 93.2419 87.233C92.5574 85.3625 93.4593 83.2648 95.2492 82.5543C98.3849 81.3073 98.3849 79.9298 98.3849 79.2676C98.3849 77.1506 95.8088 75.6716 90.7306 74.879C88.8389 74.5793 87.5301 72.7378 87.8122 70.7513C88.0943 68.7696 89.8518 67.4501 91.7619 67.7063C102.968 69.4608 105.322 74.9611 105.322 79.2676C105.322 81.897 104.333 86.6965 97.7189 89.3306C97.3119 89.4901 96.8957 89.5675 96.4841 89.5675Z" fill="#D2091E"/>
</g>
<path fill-rule="evenodd" clip-rule="evenodd" d="M54.9759 76.9177C43.9869 76.9177 30.8843 78.329 30.8843 85.0473C30.8843 91.8188 43.9869 93.2398 54.9759 93.2398C65.9649 93.2398 79.0629 91.8333 79.0629 85.1295C79.0629 78.3435 65.9649 76.9177 54.9759 76.9177ZM54.9759 100.49C47.303 100.49 23.9468 100.49 23.9468 85.0473C23.9468 69.6677 47.303 69.6677 54.9759 69.6677C62.6488 69.6677 86.0004 69.6677 86.0004 85.1295C86.0004 100.49 63.4628 100.49 54.9759 100.49Z" fill="#D2091E"/>
<path fill-rule="evenodd" clip-rule="evenodd" d="M54.9758 26.5833C47.1503 26.5833 40.7863 33.2388 40.7863 41.4168C40.7724 45.3801 42.2247 49.0873 44.8841 51.8858C47.5434 54.6843 51.0862 56.2358 54.8602 56.2503L54.9758 59.8753V56.2503C62.8013 56.2503 69.1699 49.5996 69.1699 41.4168C69.1699 33.2388 62.8013 26.5833 54.9758 26.5833ZM54.9758 63.5003H54.8509C49.2084 63.481 43.9221 61.1706 39.9631 56.9946C35.9948 52.8235 33.8257 47.2845 33.8488 41.4023C33.8488 29.2416 43.3254 19.3333 54.9758 19.3333C66.6308 19.3333 76.1074 29.2416 76.1074 41.4168C76.1074 53.592 66.6308 63.5003 54.9758 63.5003Z" fill="#D2091E"/>
<path fill-rule="evenodd" clip-rule="evenodd" d="M27.2213 58.7081C27.0641 58.7081 26.9022 58.6984 26.7403 58.6742C18.5309 57.4707 12.3334 50.0274 12.3149 41.3612C12.3149 32.7337 18.2211 25.4644 26.3518 24.0676C28.2989 23.7486 30.0241 25.0874 30.3386 27.0546C30.6484 29.0314 29.3673 30.8971 27.4803 31.2209C22.7119 32.0377 19.2524 36.3007 19.2524 41.3516C19.2617 46.4266 22.8923 50.7911 27.6977 51.4919C29.5986 51.7674 30.9167 53.5992 30.6531 55.5857C30.4079 57.3982 28.9233 58.7081 27.2213 58.7081Z" fill="#D2091E"/>
<path fill-rule="evenodd" clip-rule="evenodd" d="M13.4685 89.5674C13.0569 89.5674 12.6406 89.4901 12.2336 89.3306C5.61524 86.6916 4.62549 81.8921 4.62549 79.2676C4.62549 74.9659 6.97961 69.4608 18.1906 67.7063C20.1007 67.4549 21.849 68.7696 22.1357 70.7513C22.4179 72.7378 21.109 74.5793 19.2174 74.8789C14.1391 75.6716 11.563 77.1506 11.563 79.2676C11.563 79.9298 11.563 81.3024 14.7034 82.5543C16.4932 83.2648 17.3951 85.3624 16.7106 87.2329C16.1834 88.6781 14.8652 89.5674 13.4685 89.5674Z" fill="#D2091E"/>
</svg>
