<svg width="100" height="100" viewBox="0 0 100 100" fill="none" xmlns="http://www.w3.org/2000/svg">
<path fill-rule="evenodd" clip-rule="evenodd" d="M65.4825 70.7238H35.3992C33.6742 70.7238 32.2742 69.3238 32.2742 67.5988C32.2742 65.8738 33.6742 64.4738 35.3992 64.4738H65.4825C67.2075 64.4738 68.6075 65.8738 68.6075 67.5988C68.6075 69.3238 67.2075 70.7238 65.4825 70.7238Z" fill="#D2091E"/>
<path fill-rule="evenodd" clip-rule="evenodd" d="M65.4825 53.28H35.3992C33.6742 53.28 32.2742 51.88 32.2742 50.155C32.2742 48.43 33.6742 47.03 35.3992 47.03H65.4825C67.2075 47.03 68.6075 48.43 68.6075 50.155C68.6075 51.88 67.2075 53.28 65.4825 53.28Z" fill="#D2091E"/>
<path fill-rule="evenodd" clip-rule="evenodd" d="M46.8771 35.8766H35.398C33.6729 35.8766 32.2729 34.4766 32.2729 32.7516C32.2729 31.0266 33.6729 29.6266 35.398 29.6266H46.8771C48.6021 29.6266 50.0021 31.0266 50.0021 32.7516C50.0021 34.4766 48.6021 35.8766 46.8771 35.8766Z" fill="#D2091E"/>
<mask id="mask0_96_1450" style="mask-type:luminance" maskUnits="userSpaceOnUse" x="12" y="8" width="77" height="84">
<path fill-rule="evenodd" clip-rule="evenodd" d="M12.5 8.33417H88.1862V91.2917H12.5V8.33417Z" fill="white"/>
</mask>
<g mask="url(#mask0_96_1450)">
<path fill-rule="evenodd" clip-rule="evenodd" d="M66.2863 14.5833L34.2488 14.6C24.5488 14.6583 18.7488 20.6583 18.7488 30.6541V68.9708C18.7488 79.0333 24.6029 85.0416 34.3988 85.0416L66.4363 85.0291C76.1363 84.9708 81.9363 78.9625 81.9363 68.9708V30.6541C81.9363 20.5916 76.0863 14.5833 66.2863 14.5833ZM34.4029 91.2916C21.3029 91.2916 12.4988 82.3208 12.4988 68.9708V30.6541C12.4988 17.1833 21.0279 8.42915 34.2279 8.34998L66.2821 8.33331H66.2863C79.3863 8.33331 88.1863 17.3041 88.1863 30.6541V68.9708C88.1863 82.4375 79.6571 91.1958 66.4571 91.2791L34.4029 91.2916Z" fill="#D2091E"/>
</g>
</svg>
