<svg width="24" height="25" viewBox="0 0 24 25" fill="none" xmlns="http://www.w3.org/2000/svg">
<g id="&#240;&#159;&#166;&#134; icon &#34;search-alt&#34;">
<path id="Vector" d="M22.8422 17.7981L20.3502 15.2459C19.8142 14.7364 19.1381 14.3988 18.4087 14.2765C17.6793 14.1542 16.93 14.2529 16.2571 14.5597L15.1737 13.4762C16.4504 11.7703 17.0335 9.644 16.8055 7.52542C16.5776 5.40683 15.5555 3.45326 13.9451 2.05797C12.3346 0.662674 10.2554 -0.0707333 8.12593 0.00538315C5.99648 0.0814997 3.97492 0.961488 2.4682 2.4682C0.961489 3.97492 0.0814997 5.99648 0.00538315 8.12593C-0.0707334 10.2554 0.662674 12.3346 2.05797 13.9451C3.45326 15.5555 5.40683 16.5776 7.52542 16.8055C9.644 17.0335 11.7703 16.4504 13.4762 15.1737L14.5477 16.2451C14.2047 16.9188 14.0818 17.6832 14.1962 18.4305C14.3107 19.1777 14.6568 19.8703 15.1857 20.4104L17.7379 22.9626C18.415 23.6389 19.333 24.0188 20.29 24.0188C21.2471 24.0188 22.165 23.6389 22.8422 22.9626C23.1862 22.6262 23.4595 22.2246 23.6461 21.7811C23.8327 21.3377 23.9288 20.8614 23.9288 20.3803C23.9288 19.8992 23.8327 19.423 23.6461 18.9795C23.4595 18.5361 23.1862 18.1344 22.8422 17.7981ZM12.6336 12.6937C11.7911 13.534 10.7186 14.1058 9.55138 14.3368C8.38418 14.5678 7.17469 14.4478 6.0757 13.9917C4.97671 13.5357 4.03753 12.7642 3.3768 11.7746C2.71607 10.7851 2.36343 9.62196 2.36343 8.43211C2.36343 7.24227 2.71607 6.07911 3.3768 5.08958C4.03753 4.10005 4.97671 3.32854 6.0757 2.87251C7.17469 2.41648 8.38418 2.29639 9.55138 2.52741C10.7186 2.75843 11.7911 3.3302 12.6336 4.17048C13.1941 4.72962 13.6388 5.39385 13.9423 6.12513C14.2457 6.85641 14.4019 7.64037 14.4019 8.43211C14.4019 9.22385 14.2457 10.0078 13.9423 10.7391C13.6388 11.4704 13.1941 12.1346 12.6336 12.6937ZM21.1448 21.205C21.0329 21.3178 20.8997 21.4074 20.753 21.4685C20.6063 21.5296 20.449 21.5611 20.29 21.5611C20.1311 21.5611 19.9738 21.5296 19.8271 21.4685C19.6804 21.4074 19.5472 21.3178 19.4353 21.205L16.8831 18.6528C16.7703 18.5409 16.6808 18.4077 16.6196 18.261C16.5585 18.1143 16.527 17.957 16.527 17.7981C16.527 17.6391 16.5585 17.4818 16.6196 17.3351C16.6808 17.1884 16.7703 17.0553 16.8831 16.9433C16.9951 16.8305 17.1282 16.7409 17.2749 16.6798C17.4216 16.6187 17.579 16.5872 17.7379 16.5872C17.8968 16.5872 18.0542 16.6187 18.2009 16.6798C18.3476 16.7409 18.4807 16.8305 18.5926 16.9433L21.1448 19.4955C21.2576 19.6074 21.3472 19.7406 21.4083 19.8873C21.4694 20.034 21.5009 20.1913 21.5009 20.3502C21.5009 20.5092 21.4694 20.6665 21.4083 20.8132C21.3472 20.9599 21.2576 21.0931 21.1448 21.205Z" fill="#3D3D3D"/>
</g>
</svg>
