<svg width="102" height="82" viewBox="0 0 102 82" fill="none" xmlns="http://www.w3.org/2000/svg">
<g id="3 User">
<path id="Fill 1" fill-rule="evenodd" clip-rule="evenodd" d="M78.726 39.7081C77.024 39.7081 75.5394 38.3982 75.2943 36.5857C75.0307 34.5992 76.3488 32.7674 78.2497 32.4919C83.0597 31.7862 86.6903 27.4266 86.6995 22.3419C86.6995 17.3007 83.24 13.0377 78.4717 12.2209C76.5847 11.8971 75.3035 10.0314 75.6134 8.05457C75.9279 6.07774 77.6993 4.75341 79.6002 5.06757C87.7309 6.46441 93.637 13.7337 93.637 22.3516C93.6185 31.0274 87.4164 38.4707 79.207 39.6742C79.0452 39.6984 78.8833 39.7081 78.726 39.7081" fill="#D2091E"/>
<g id="Group 5">
<mask id="mask0_554_2929" style="mask-type:luminance" maskUnits="userSpaceOnUse" x="83" y="48" width="19" height="23">
<path id="Clip 4" fill-rule="evenodd" clip-rule="evenodd" d="M83.7734 48.6746H101.321V70.5675H83.7734V48.6746Z" fill="white"/>
</mask>
<g mask="url(#mask0_554_2929)">
<path id="Fill 3" fill-rule="evenodd" clip-rule="evenodd" d="M92.4836 70.5675C91.0868 70.5675 89.7687 69.6781 89.2414 68.233C88.5569 66.3625 89.4588 64.2648 91.2487 63.5543C94.3844 62.3073 94.3844 60.9298 94.3844 60.2676C94.3844 58.1506 91.8083 56.6716 86.7301 55.879C84.8384 55.5793 83.5296 53.7378 83.8117 51.7513C84.0938 49.7696 85.8513 48.4501 87.7614 48.7063C98.9678 50.4608 101.322 55.9611 101.322 60.2676C101.322 62.897 100.332 67.6965 93.7184 70.3306C93.3114 70.4901 92.8952 70.5675 92.4836 70.5675" fill="#D2091E"/>
</g>
</g>
<path id="Fill 6" fill-rule="evenodd" clip-rule="evenodd" d="M50.9754 57.9175C39.9864 57.9175 26.8838 59.3288 26.8838 66.0471C26.8838 72.8186 39.9864 74.2396 50.9754 74.2396C61.9644 74.2396 75.0624 72.8331 75.0624 66.1293C75.0624 59.3433 61.9644 57.9175 50.9754 57.9175M50.9754 81.4896C43.3025 81.4896 19.9463 81.4896 19.9463 66.0471C19.9463 50.6675 43.3025 50.6675 50.9754 50.6675C58.6483 50.6675 81.9999 50.6675 81.9999 66.1293C81.9999 81.4896 59.4623 81.4896 50.9754 81.4896" fill="#D2091E"/>
<path id="Fill 8" fill-rule="evenodd" clip-rule="evenodd" d="M50.9758 7.58325C43.1503 7.58325 36.7863 14.2388 36.7863 22.4168C36.7724 26.3801 38.2247 30.0873 40.8841 32.8858C43.5434 35.6843 47.0862 37.2358 50.8602 37.2503L50.9758 40.8753V37.2503C58.8013 37.2503 65.1699 30.5996 65.1699 22.4168C65.1699 14.2388 58.8013 7.58325 50.9758 7.58325M50.9758 44.5002H50.8509C45.2084 44.4809 39.9221 42.1706 35.9631 37.9946C31.9948 33.8234 29.8257 28.2844 29.8488 22.4022C29.8488 10.2416 39.3254 0.333252 50.9758 0.333252C62.6308 0.333252 72.1074 10.2416 72.1074 22.4167C72.1074 34.5919 62.6308 44.5002 50.9758 44.5002" fill="#D2091E"/>
<path id="Fill 10" fill-rule="evenodd" clip-rule="evenodd" d="M23.2208 39.708C23.0636 39.708 22.9017 39.6983 22.7398 39.6742C14.5305 38.4707 8.33295 31.0273 8.31445 22.3612C8.31445 13.7337 14.2206 6.46434 22.3513 5.0675C24.2985 4.7485 26.0236 6.08734 26.3381 8.05451C26.648 10.0313 25.3668 11.897 23.4798 12.2208C18.7115 13.0377 15.252 17.3007 15.252 22.3515C15.2612 27.4265 18.8918 31.791 23.6972 32.4918C25.5981 32.7673 26.9162 34.5992 26.6526 36.5857C26.4075 38.3982 24.9228 39.708 23.2208 39.708" fill="#D2091E"/>
<path id="Fill 12" fill-rule="evenodd" clip-rule="evenodd" d="M9.468 70.5674C9.05637 70.5674 8.64012 70.4901 8.23312 70.3306C1.61475 67.6916 0.625 62.8921 0.625 60.2676C0.625 55.9659 2.97913 50.4608 14.1901 48.7063C16.1002 48.4549 17.8485 49.7696 18.1352 51.7513C18.4174 53.7378 17.1085 55.5793 15.2169 55.8789C10.1386 56.6716 7.5625 58.1506 7.5625 60.2676C7.5625 60.9298 7.5625 62.3024 10.7029 63.5543C12.4927 64.2648 13.3946 66.3624 12.7101 68.2329C12.1829 69.6781 10.8647 70.5674 9.468 70.5674" fill="#D2091E"/>
</g>
</svg>
