<svg width="19" height="25" viewBox="0 0 19 25" fill="none" xmlns="http://www.w3.org/2000/svg">
<path d="M18.0487 8.15429L18.0485 8.15431L18.0505 8.167C18.2696 9.59152 18.051 10.8959 17.4516 12.0946L17.4465 12.1048L17.4419 12.1152C16.7454 13.6823 15.9349 15.2445 15.0118 16.6869L15.0118 16.6869L15.0089 16.6915C13.3687 19.3159 11.415 21.7407 9.28176 24.2194C8.97901 23.8452 8.6806 23.4806 8.3859 23.1206C7.88172 22.5047 7.38839 21.902 6.90274 21.2869C4.91658 18.7164 3.05788 16.0426 1.55082 13.1444L1.55083 13.1444L1.54911 13.1411C0.0465476 10.3029 0.285373 7.513 1.4616 5.27816C2.64586 3.02807 4.7781 1.34734 7.04234 0.767011C12.1633 -0.512361 17.3835 2.94343 18.0487 8.15429ZM5.53901 9.32392C5.53901 11.3556 7.2249 13.1118 9.32688 13.1118C11.3731 13.1118 13.0514 11.3545 13.056 9.33223C13.1194 7.28193 11.358 5.53605 9.32688 5.53605C7.28938 5.53605 5.53901 7.28642 5.53901 9.32392Z" stroke="#0A0A0A"/>
</svg>
