<svg xmlns="http://www.w3.org/2000/svg" width="31" height="25" viewBox="0 0 31 25" fill="none">
  <path d="M14.0459 1.42505L14.0461 1.42488C14.3822 1.15537 14.8208 1 15.2836 1C15.7464 1 16.185 1.15537 16.5211 1.42488L16.5214 1.4251L25.5879 8.69113L25.6009 8.70151L25.6142 8.71147L29.173 11.3743C29.173 11.3743 29.173 11.3743 29.173 11.3743C29.2164 11.4069 29.2483 11.4438 29.2699 11.4805L30.1317 10.9733L29.2699 11.4806C29.2915 11.5171 29.3032 11.554 29.3074 11.589C29.3115 11.6239 29.3084 11.6597 29.2974 11.6953C29.2863 11.7312 29.2665 11.7688 29.2356 11.8049L29.9953 12.4551L29.2356 11.8049C29.2045 11.8411 29.1628 11.8752 29.1103 11.9022L29.568 12.7913L29.1103 11.9022C29.0578 11.9293 28.9973 11.9477 28.9324 11.9544C28.8675 11.9612 28.8021 11.9558 28.7408 11.9392C28.6796 11.9226 28.6261 11.8958 28.5826 11.8632L28.5824 11.8631L27.3303 10.9264L25.7313 9.73017V11.7271V22.3237C25.7313 22.7458 25.5526 23.1654 25.2101 23.4857C24.8652 23.8082 24.384 24 23.8694 24H19.1455V18.3094C19.1455 17.3119 18.7212 16.37 17.9903 15.6866C17.2617 15.0052 16.287 14.6331 15.2836 14.6331C14.2802 14.6331 13.3055 15.0052 12.5769 15.6866C11.846 16.37 11.4217 17.3119 11.4217 18.3094V24H6.69783C6.18318 24 5.70199 23.8082 5.35716 23.4857C5.01461 23.1654 4.83591 22.7458 4.83591 22.3237V11.7258V9.72883L3.23688 10.9251L1.98479 11.8617L1.97216 11.8712L1.95984 11.881C1.91724 11.9151 1.86409 11.9436 1.80246 11.9618C1.74077 11.98 1.67436 11.9868 1.60798 11.9809C1.5416 11.9751 1.47952 11.9569 1.42558 11.9297C1.37174 11.9026 1.32891 11.8679 1.29726 11.8309L0.539958 12.4798L1.29726 11.8309C1.26576 11.7942 1.24577 11.7558 1.23477 11.7194C1.22383 11.6831 1.22111 11.6467 1.22591 11.6111C1.23072 11.5754 1.24351 11.5378 1.26665 11.5005L0.419157 10.9743L1.26665 11.5005C1.28993 11.463 1.32395 11.4256 1.36995 11.3933L1.38221 11.3847L1.39422 11.3757L4.95302 8.7128L4.96636 8.70282L4.97935 8.69241L14.0459 1.42505Z" stroke="#0A0A0A" stroke-width="2"/>
</svg>