<svg width="22" height="26" viewBox="0 0 22 26" fill="none" xmlns="http://www.w3.org/2000/svg">
<path d="M11 13.523C14.0682 13.523 16.5556 10.9537 16.5556 7.78444C16.5556 4.61513 14.0682 2.0459 11 2.0459C7.93176 2.0459 5.44444 4.61513 5.44444 7.78444C5.44444 10.9537 7.93176 13.523 11 13.523ZM11 13.523L6.31457 13.7725C3.35812 13.9029 1 18.471 1 21.5569V22.7046L1.0061 22.8759C1.09093 24.0637 2.05071 25.0001 3.22222 25.0001H18.7778L18.9436 24.9938C20.0935 24.9061 21 23.9148 21 22.7046V21.5569L20.9949 21.308C20.8687 18.2542 18.2483 13.7725 15.2609 13.7725L11 13.523Z" stroke="#0A0A0A"/>
</svg>
