<svg xmlns="http://www.w3.org/2000/svg" width="90" height="90" viewBox="0 0 90 90" fill="none">
  <path d="M36.6655 41.7502L6.82464 71.5912C3.52851 74.8871 3.52851 80.2315 6.82464 83.5274C10.1207 86.8238 15.4648 86.8238 18.7609 83.5274L48.6017 53.6869" stroke="#D2091E" stroke-width="7" stroke-linecap="round" stroke-linejoin="round"/>
  <path d="M66.8071 55.2246L83.174 71.5915C86.4704 74.8875 86.4704 80.2318 83.174 83.5278C79.8781 86.8241 74.5337 86.8241 71.2378 83.5278L45.0371 57.3275" stroke="#D2091E" stroke-width="7" stroke-linecap="round" stroke-linejoin="round"/>
  <path d="M22.6652 21.9045L13.713 24.8886L4.76074 9.9682L10.7289 4L25.6493 12.9523L22.6652 21.9045ZM22.6652 21.9045L34.6092 33.8484" stroke="#D2091E" stroke-width="7" stroke-linecap="round" stroke-linejoin="round"/>
  <path d="M36.6664 41.7511C33.1054 32.6652 33.8016 20.7434 41.1426 13.4024C48.4836 6.0614 62.031 4.45015 69.4914 8.92628L56.6592 21.7583L55.4666 34.8873L68.5955 33.6947L81.4276 20.8626C85.9039 28.3228 84.2927 41.8706 76.9517 49.2115C69.6104 56.5524 57.6889 57.2487 48.603 53.6874" stroke="#D2091E" stroke-width="7" stroke-linecap="round" stroke-linejoin="round"/>
</svg>