<svg width="29" height="24" viewBox="0 0 29 24" fill="none" xmlns="http://www.w3.org/2000/svg">
<g id="&#240;&#159;&#166;&#134; icon &#34;truck&#34;">
<path id="Vector" d="M22.0644 6.50612L22.048 6.48733L22.0303 6.46967C21.7816 6.22093 21.448 6.00031 21.112 5.84092C20.7826 5.68469 20.3742 5.55078 19.9727 5.55078H19V3.875C19 2.42563 17.8244 1.25 16.375 1.25H3.875C2.42563 1.25 1.25 2.42563 1.25 3.875V16.375C1.25 17.8034 2.3918 18.9659 3.81215 18.9993C4.1691 21.1274 6.02074 22.75 8.25 22.75C10.479 22.75 12.3305 21.1278 12.6877 19H16.3123C16.6695 21.1278 18.521 22.75 20.75 22.75C22.979 22.75 24.8305 21.1278 25.1877 19H26.375C27.133 19 27.75 18.383 27.75 17.625V16.375C27.75 15.6592 27.1996 15.069 26.5 15.0056V12C26.5 11.4985 26.2774 11.1565 26.0381 10.9164C25.9423 10.8203 25.8367 10.7335 25.7598 10.6703C25.7538 10.6653 25.7479 10.6605 25.7423 10.6558C25.6624 10.5901 25.6014 10.5388 25.5463 10.4854L22.0644 6.50612ZM8.25 19.375C7.62906 19.375 7.125 18.8709 7.125 18.25C7.125 17.6291 7.62906 17.125 8.25 17.125C8.87094 17.125 9.375 17.6291 9.375 18.25C9.375 18.8709 8.87094 19.375 8.25 19.375ZM20.75 19.375C20.1291 19.375 19.625 18.8709 19.625 18.25C19.625 17.6291 20.1291 17.125 20.75 17.125C21.3709 17.125 21.875 17.6291 21.875 18.25C21.875 18.8709 21.3709 19.375 20.75 19.375ZM19.662 8.375L22.537 11.25H19V8.375H19.662Z" stroke="#0A0A0A" stroke-width="1.5"/>
</g>
</svg>
