<svg width="31" height="25" viewBox="0 0 31 25" fill="none" xmlns="http://www.w3.org/2000/svg">
<path d="M13.733 1.03491L13.7331 1.03483C14.1605 0.69204 14.7102 0.5 15.2834 0.5C15.8565 0.5 16.4062 0.69204 16.8337 1.03483L16.8338 1.03494L25.9004 8.30096L25.9069 8.30615L25.9135 8.31113L29.4723 10.974C29.5674 11.0452 29.6444 11.1315 29.7006 11.2269L30.1315 10.9733L29.7006 11.2269C29.7567 11.3222 29.7912 11.4252 29.8036 11.53C29.8161 11.6349 29.8064 11.7412 29.7747 11.8434C29.743 11.9457 29.6894 12.0433 29.6152 12.13L29.9951 12.4551L29.6152 12.13C29.541 12.2167 29.4475 12.2909 29.3389 12.3468C29.2303 12.4027 29.1096 12.4387 28.9838 12.4518C28.8579 12.4648 28.7307 12.4545 28.6098 12.4217C28.4889 12.389 28.3779 12.3347 28.2827 12.2635L28.2827 12.2635L27.0306 11.3268L26.2311 10.7287V11.7271V22.3237C26.2311 22.8897 25.991 23.4398 25.5513 23.8509C25.1106 24.2631 24.506 24.5 23.8691 24.5H18.6453V18.3094C18.6453 17.4557 18.2824 16.6444 17.6486 16.0518C17.0159 15.4602 16.1646 15.1331 15.2834 15.1331C14.4021 15.1331 13.5508 15.4602 12.9182 16.0518C12.2844 16.6444 11.9214 17.4557 11.9214 18.3094V24.5H6.69759C6.06075 24.5 5.45618 24.2631 5.01541 23.8509C4.57578 23.4398 4.33566 22.8897 4.33566 22.3237V11.7258V10.7273L3.53615 11.3254L2.28406 12.2621L2.27774 12.2668L2.27158 12.2718C2.1774 12.347 2.06618 12.4051 1.94399 12.4413C1.82176 12.4774 1.69231 12.4904 1.5637 12.479C1.4351 12.4676 1.31143 12.4323 1.20011 12.3761C1.08885 12.32 0.993091 12.2447 0.917335 12.1563C0.841655 12.0679 0.787371 11.9683 0.755846 11.8638C0.724349 11.7594 0.715757 11.6509 0.730153 11.5442C0.744555 11.4375 0.781925 11.3329 0.841614 11.2368C0.901372 11.1405 0.98266 11.0541 1.08228 10.9841L1.08842 10.9798L1.09442 10.9753L4.65322 8.31247L4.65989 8.30748L4.66639 8.30227L13.733 1.03491Z" stroke="#0A0A0A"/>
</svg>
