<svg width="90" height="90" viewBox="0 0 90 90" fill="none" xmlns="http://www.w3.org/2000/svg">
<g id="&#240;&#159;&#166;&#134; icon &#34;tools&#34;">
<path id="Vector" d="M36.666 41.7504L6.82513 71.5913C3.52899 74.8873 3.52899 80.2316 6.82513 83.5276C10.1212 86.8239 15.4653 86.8239 18.7614 83.5276L48.6022 53.687" stroke="#D2091E" stroke-width="7" stroke-linecap="round" stroke-linejoin="round"/>
<path id="Vector_2" d="M66.8081 55.2245L83.175 71.5915C86.4713 74.8874 86.4713 80.2318 83.175 83.5277C79.8791 86.8241 74.5347 86.8241 71.2388 83.5277L45.0381 57.3274" stroke="#D2091E" stroke-width="7" stroke-linecap="round" stroke-linejoin="round"/>
<path id="Vector_3" d="M22.6657 21.9045L13.7135 24.8886L4.76123 9.9682L10.7294 4L25.6498 12.9523L22.6657 21.9045ZM22.6657 21.9045L34.6097 33.8484" stroke="#D2091E" stroke-width="7" stroke-linecap="round" stroke-linejoin="round"/>
<path id="Vector_4" d="M36.6668 41.7513C33.1059 32.6653 33.8021 20.7435 41.1431 13.4025C48.4841 6.06152 62.0315 4.45028 69.4919 8.9264L56.6597 21.7584L55.4671 34.8874L68.5959 33.6948L81.4281 20.8627C85.9044 28.3229 84.2932 41.8707 76.9522 49.2116C69.6109 56.5525 57.6894 57.2489 48.6035 53.6875" stroke="#D2091E" stroke-width="7" stroke-linecap="round" stroke-linejoin="round"/>
</g>
</svg>
