<svg width="77" height="84" viewBox="0 0 77 84" fill="none" xmlns="http://www.w3.org/2000/svg">
<g id="Document">
<path id="Fill 1" fill-rule="evenodd" clip-rule="evenodd" d="M53.4828 62.7239H23.3994C21.6744 62.7239 20.2744 61.3239 20.2744 59.5989C20.2744 57.8739 21.6744 56.4739 23.3994 56.4739H53.4828C55.2078 56.4739 56.6078 57.8739 56.6078 59.5989C56.6078 61.3239 55.2078 62.7239 53.4828 62.7239" fill="#D2091E"/>
<path id="Fill 3" fill-rule="evenodd" clip-rule="evenodd" d="M53.4828 45.28H23.3994C21.6744 45.28 20.2744 43.88 20.2744 42.155C20.2744 40.43 21.6744 39.03 23.3994 39.03H53.4828C55.2078 39.03 56.6078 40.43 56.6078 42.155C56.6078 43.88 55.2078 45.28 53.4828 45.28" fill="#D2091E"/>
<path id="Fill 5" fill-rule="evenodd" clip-rule="evenodd" d="M34.8766 27.8767H23.3975C21.6725 27.8767 20.2725 26.4767 20.2725 24.7517C20.2725 23.0267 21.6725 21.6267 23.3975 21.6267H34.8766C36.6016 21.6267 38.0016 23.0267 38.0016 24.7517C38.0016 26.4767 36.6016 27.8767 34.8766 27.8767" fill="#D2091E"/>
<g id="Group 9">
<mask id="mask0_554_2974" style="mask-type:luminance" maskUnits="userSpaceOnUse" x="0" y="0" width="77" height="84">
<path id="Clip 8" fill-rule="evenodd" clip-rule="evenodd" d="M0.5 0.334229H76.1862V83.2917H0.5V0.334229Z" fill="white"/>
</mask>
<g mask="url(#mask0_554_2974)">
<path id="Fill 7" fill-rule="evenodd" clip-rule="evenodd" d="M54.2865 6.5835L22.249 6.60016C12.549 6.6585 6.74902 12.6585 6.74902 22.6543V60.971C6.74902 71.0335 12.6032 77.0418 22.399 77.0418L54.4365 77.0293C64.1365 76.971 69.9365 70.9627 69.9365 60.971V22.6543C69.9365 12.5918 64.0865 6.5835 54.2865 6.5835ZM22.4032 83.2918C9.30319 83.2918 0.499023 74.321 0.499023 60.971V22.6543C0.499023 9.1835 9.02819 0.429329 22.2282 0.350163L54.2824 0.333496H54.2865C67.3865 0.333496 76.1865 9.30433 76.1865 22.6543V60.971C76.1865 74.4377 67.6574 83.196 54.4574 83.2793L22.4032 83.2918Z" fill="#D2091E"/>
</g>
</g>
</g>
</svg>
