<svg xmlns="http://www.w3.org/2000/svg" width="19" height="25" viewBox="0 0 19 25" fill="none">
  <path d="M17.5527 8.2176L17.5543 8.23034L17.5563 8.24303C17.7597 9.56557 17.5573 10.7652 17.0044 11.871L16.9942 11.8913L16.985 11.9121C16.2965 13.4612 15.4976 15.0003 14.5906 16.4174L14.5906 16.4174L14.5849 16.4265C13.064 18.8599 11.2667 21.1255 9.29209 23.439C9.11492 23.2217 8.94006 23.0081 8.76684 22.7966C8.26852 22.1879 7.78378 21.5959 7.29686 20.9792C5.32072 18.4216 3.48207 15.7745 1.99443 12.9137L1.99445 12.9137L1.991 12.9072C0.571104 10.2251 0.79923 7.61022 1.90406 5.51104C3.02495 3.38134 5.04369 1.79592 7.16502 1.25173C12.0054 0.0433813 16.9268 3.31482 17.5527 8.2176ZM5.03901 9.32392C5.03901 11.626 6.94299 13.6118 9.32688 13.6118C11.658 13.6118 13.5469 11.6238 13.556 9.34053C13.6242 7.00141 11.6278 5.03605 9.32688 5.03605C7.01324 5.03605 5.03901 7.01028 5.03901 9.32392Z" stroke="#0A0A0A" stroke-width="2"/>
</svg>