<svg width="204" height="38" viewBox="0 0 204 38" fill="none" xmlns="http://www.w3.org/2000/svg">
<path d="M1.19209e-07 29V2.04H3.52V26.08H15.04V29H1.19209e-07ZM26.1603 29.44H26.1203C23.4536 29.44 21.2403 28.5333 19.4803 26.72C17.7203 24.88 16.8403 22.4667 16.8403 19.48C16.8403 16.3333 17.747 13.84 19.5603 12C21.4003 10.1333 23.6936 9.2 26.4403 9.2C29.2136 9.2 31.4536 10.12 33.1603 11.96C34.8936 13.8 35.7603 16.1867 35.7603 19.12C35.7603 22.48 34.8003 25.04 32.8803 26.8C30.9603 28.56 28.7203 29.44 26.1603 29.44ZM26.2403 26.8H26.2803C27.9603 26.8 29.3603 26.0933 30.4803 24.68C31.6003 23.24 32.1603 21.4267 32.1603 19.24C32.1603 17.3467 31.667 15.64 30.6803 14.12C29.7203 12.6 28.2803 11.84 26.3603 11.84C24.4403 11.84 22.9736 12.5867 21.9603 14.08C20.947 15.5733 20.4403 17.3333 20.4403 19.36C20.4403 21.4933 20.987 23.2667 22.0803 24.68C23.1736 26.0933 24.5603 26.8 26.2403 26.8ZM37.3666 9.64H41.2866L44.0466 13.8C44.7666 14.8933 45.4199 15.9467 46.0066 16.96H46.1266C46.6066 16.1067 47.2599 15.04 48.0866 13.76L50.7666 9.64H54.6066L48.0066 19L54.7666 29H50.7666L47.9266 24.64C47.3932 23.84 46.6999 22.72 45.8466 21.28H45.7666C45.5266 21.7067 44.8466 22.8267 43.7266 24.64L40.9266 29H37.0466L43.9266 19.12L37.3666 9.64Z" fill="#BDBBBB"/>
<path d="M57.8822 28.88V2.44C59.8822 2.04 62.5089 1.84 65.7622 1.84C69.3622 1.84 72.0155 2.34667 73.7222 3.36C75.8555 4.50666 76.9222 6.28 76.9222 8.68C76.9222 9.90667 76.5489 11.0267 75.8022 12.04C75.0555 13.0533 73.9622 13.84 72.5222 14.4V14.48C74.1222 14.9067 75.4155 15.7067 76.4022 16.88C77.3889 18.0267 77.8822 19.44 77.8822 21.12C77.8822 23.4667 76.9489 25.3733 75.0822 26.84C73.0289 28.4667 69.4955 29.28 64.4822 29.28C61.8955 29.28 59.6955 29.1467 57.8822 28.88ZM63.9222 6.48V12.72H65.9222C67.5222 12.72 68.7355 12.4267 69.5622 11.84C70.4155 11.2267 70.8422 10.4133 70.8422 9.4C70.8422 7.32 69.4022 6.28 66.5222 6.28C65.3222 6.28 64.4555 6.34667 63.9222 6.48ZM63.9222 17.08V24.68C64.3222 24.76 65.1089 24.8 66.2822 24.8C67.8022 24.8 69.0422 24.48 70.0022 23.84C70.9889 23.2 71.4822 22.2133 71.4822 20.88C71.4822 19.6 70.9755 18.6533 69.9622 18.04C68.9489 17.4 67.6289 17.08 66.0022 17.08H63.9222ZM91.0972 29.44H91.0572C88.1239 29.44 85.6972 28.5333 83.7772 26.72C81.8839 24.9067 80.9372 22.4533 80.9372 19.36C80.9372 16.2133 81.8839 13.7067 83.7772 11.84C85.6972 9.94667 88.2439 9 91.4172 9C94.3772 9 96.7772 9.93333 98.6172 11.8C100.457 13.6667 101.377 16.08 101.377 19.04C101.377 22.4 100.364 24.9733 98.3372 26.76C96.3372 28.5467 93.9239 29.44 91.0972 29.44ZM91.1772 25.08H91.2172C92.4172 25.08 93.3639 24.5467 94.0572 23.48C94.7505 22.4133 95.0972 20.9867 95.0972 19.2C95.0972 17.6 94.7639 16.2267 94.0972 15.08C93.4572 13.9333 92.4972 13.36 91.2172 13.36C89.8839 13.36 88.8839 13.9333 88.2172 15.08C87.5505 16.2267 87.2172 17.6133 87.2172 19.24C87.2172 20.9467 87.5639 22.3467 88.2572 23.44C88.9505 24.5333 89.9239 25.08 91.1772 25.08ZM114.183 29.44H114.143C111.21 29.44 108.783 28.5333 106.863 26.72C104.97 24.9067 104.023 22.4533 104.023 19.36C104.023 16.2133 104.97 13.7067 106.863 11.84C108.783 9.94667 111.33 9 114.503 9C117.463 9 119.863 9.93333 121.703 11.8C123.543 13.6667 124.463 16.08 124.463 19.04C124.463 22.4 123.45 24.9733 121.423 26.76C119.423 28.5467 117.01 29.44 114.183 29.44ZM114.263 25.08H114.303C115.503 25.08 116.45 24.5467 117.143 23.48C117.836 22.4133 118.183 20.9867 118.183 19.2C118.183 17.6 117.85 16.2267 117.183 15.08C116.543 13.9333 115.583 13.36 114.303 13.36C112.97 13.36 111.97 13.9333 111.303 15.08C110.636 16.2267 110.303 17.6133 110.303 19.24C110.303 20.9467 110.65 22.3467 111.343 23.44C112.036 24.5333 113.01 25.08 114.263 25.08ZM134.309 0.559999V17.68H134.389C134.816 16.88 135.282 16.0933 135.789 15.32L139.749 9.44H147.069L140.069 17.36L148.069 29H140.589L135.829 20.96L134.309 22.88V29H128.229V0.559999H134.309ZM156.379 29H150.299V9.44H156.379V29ZM153.339 7.04H153.299C152.366 7.04 151.606 6.74667 151.019 6.16C150.433 5.57333 150.139 4.85333 150.139 4C150.139 3.12 150.433 2.4 151.019 1.84C151.633 1.25333 152.419 0.959999 153.379 0.959999C154.339 0.959999 155.099 1.25333 155.659 1.84C156.246 2.4 156.553 3.12 156.579 4C156.579 4.85333 156.286 5.57333 155.699 6.16C155.113 6.74667 154.326 7.04 153.339 7.04ZM161.276 29V15.68C161.276 13.8667 161.223 11.7867 161.116 9.44H166.396L166.676 12.16H166.796C167.303 11.3333 168.063 10.6 169.076 9.96C170.116 9.32 171.369 9 172.836 9C174.943 9 176.636 9.72 177.916 11.16C179.196 12.5733 179.836 14.6667 179.836 17.44V29H173.756V18.16C173.756 15.3333 172.729 13.92 170.676 13.92C169.183 13.92 168.143 14.68 167.556 16.2C167.423 16.52 167.356 17.0267 167.356 17.72V29H161.276ZM203.233 15.28V26.16C203.233 30.2667 202.233 33.2 200.233 34.96C198.393 36.56 195.753 37.36 192.313 37.36C189.433 37.36 187.087 36.8667 185.273 35.88L186.473 31.24C188.18 32.2267 190.073 32.72 192.153 32.72C193.673 32.72 194.9 32.2933 195.833 31.44C196.767 30.5867 197.233 29.2933 197.233 27.56V26.32H197.153C195.927 28 194.167 28.84 191.873 28.84C189.447 28.84 187.46 27.96 185.913 26.2C184.367 24.4133 183.593 22.12 183.593 19.32C183.593 16.2267 184.447 13.7333 186.153 11.84C187.887 9.94667 189.993 9 192.473 9C194.9 9 196.687 9.93333 197.833 11.8H197.913L198.113 9.44H203.393C203.287 11.1467 203.233 13.0933 203.233 15.28ZM197.153 20.28V17.4C197.153 17.0267 197.113 16.6533 197.033 16.28C196.82 15.4533 196.42 14.8 195.833 14.32C195.273 13.84 194.58 13.6 193.753 13.6C192.607 13.6 191.647 14.0933 190.873 15.08C190.127 16.0667 189.753 17.4267 189.753 19.16C189.753 20.68 190.1 21.9333 190.793 22.92C191.513 23.88 192.487 24.36 193.713 24.36C194.487 24.36 195.167 24.1333 195.753 23.68C196.34 23.2267 196.74 22.64 196.953 21.92C197.087 21.52 197.153 20.9733 197.153 20.28Z" fill="#009DF3"/>
</svg>
