<svg width="57" height="60" viewBox="0 0 57 60" fill="none" xmlns="http://www.w3.org/2000/svg">
<rect width="56.25" height="60" fill="white"/>
<path d="M21.679 29.3161L21.0379 30L21.679 30.6839L36.8415 46.8581L37.5705 46.1747L36.8415 46.8581C37.1273 47.1629 37.1672 47.6638 36.9368 48.02L36.8211 48.1629C36.5612 48.4213 36.1978 48.4389 35.9265 48.2411L35.7896 48.1151L19.4085 30.6419C19.1227 30.3371 19.0828 29.8362 19.3132 29.48L19.4333 29.3316L35.8147 11.8581C36.1061 11.5473 36.5502 11.5473 36.8415 11.8581C37.1273 12.1629 37.1672 12.6638 36.9368 13.02L36.8167 13.1684L21.679 29.3161Z" stroke="black" stroke-width="2"/>
</svg>
