<svg width="13" height="15" viewBox="0 0 13 15" fill="none" xmlns="http://www.w3.org/2000/svg">
<g id="icone n&#194;&#176; de t&#195;&#169;l&#195;&#169;phone">
<path id="Vector" d="M12.4957 10.8089C12.4957 10.8086 12.4958 10.8083 12.4959 10.808C12.5048 10.7644 12.4989 10.7196 12.4815 10.6829C12.4643 10.6468 12.4399 10.6258 12.419 10.6159C12.4188 10.6158 12.4186 10.6157 12.4183 10.6156L9.57808 9.31362C9.57796 9.31357 9.57784 9.31351 9.57772 9.31346C9.56055 9.30573 9.5439 9.30475 9.52817 9.3089C9.5118 9.31322 9.49076 9.32479 9.47195 9.34943L9.47159 9.34991L8.21219 10.9956L7.96021 11.3249L7.58998 11.1382C5.50519 10.0869 3.835 8.29649 2.85855 6.08145L2.71043 5.74543L2.98673 5.50355L4.52543 4.15655L4.52661 4.15552C4.54638 4.13832 4.56537 4.10998 4.57419 4.07167C4.58305 4.03324 4.57966 3.99286 4.56584 3.95832C4.56583 3.9583 4.56583 3.95828 4.56582 3.95826L3.34782 0.918562C3.33237 0.881284 3.30856 0.858502 3.28785 0.847306C3.26809 0.836622 3.24898 0.834839 3.23152 0.838973C3.23136 0.839009 3.23121 0.839046 3.23106 0.839083L0.592164 1.49042L12.4957 10.8089ZM12.4957 10.8089L11.8869 13.6306C11.8869 13.6306 11.8869 13.6307 11.8869 13.6307C11.8781 13.6712 11.858 13.701 11.8372 13.7188C11.817 13.7359 11.7973 13.7413 11.7818 13.7413H11.7815C5.58581 13.7413 0.5 8.36187 0.5 1.64022V1.64012C0.499991 1.5973 0.513767 1.55951 0.533674 1.53273C0.553141 1.50655 0.5752 1.49463 0.592089 1.49044L12.4957 10.8089ZM0 1.64022C0 8.6061 5.2788 14.2413 11.7815 14.2413C11.9193 14.2414 12.0531 14.1915 12.161 14.0997C12.2689 14.008 12.3446 13.8798 12.3756 13.7361L12.985 10.9118C13.0164 10.7621 12.9981 10.6053 12.9332 10.4685C12.8683 10.3317 12.7608 10.2234 12.6293 10.1622L9.78546 8.85866C9.66398 8.80328 9.52896 8.79162 9.40074 8.82541C9.27252 8.85921 9.15803 8.93664 9.07451 9.04605L0 1.64022Z" stroke="#D2091E"/>
</g>
</svg>
