<svg width="26" height="23" viewBox="0 0 26 23" fill="none" xmlns="http://www.w3.org/2000/svg">
<path d="M9.85503 4.79126H7.81179C7.26989 4.79126 6.75019 4.99319 6.36701 5.35264C5.98382 5.71208 5.76855 6.19959 5.76855 6.70793V18.2079C5.76855 18.7163 5.98382 19.2038 6.36701 19.5632C6.75019 19.9227 7.26989 20.1246 7.81179 20.1246H18.028C18.5699 20.1246 19.0896 19.9227 19.4728 19.5632C19.856 19.2038 20.0712 18.7163 20.0712 18.2079V6.70793C20.0712 6.19959 19.856 5.71208 19.4728 5.35264C19.0896 4.99319 18.5699 4.79126 18.028 4.79126H15.9847" stroke="white" stroke-linecap="round" stroke-linejoin="round"/>
<path d="M13.941 2.875H11.8977C10.7693 2.875 9.85449 3.73312 9.85449 4.79167C9.85449 5.85021 10.7693 6.70833 11.8977 6.70833H13.941C15.0694 6.70833 15.9842 5.85021 15.9842 4.79167C15.9842 3.73312 15.0694 2.875 13.941 2.875Z" stroke="white" stroke-linecap="round" stroke-linejoin="round"/>
<path d="M9.85449 13.4164L11.8977 15.3331L15.9842 11.4998" stroke="white" stroke-linecap="round" stroke-linejoin="round"/>
</svg>
