<svg width="13" height="17" viewBox="0 0 13 17" fill="none" xmlns="http://www.w3.org/2000/svg">
<g id="icone contact">
<g id="Group">
<path id="Vector" d="M8.96973 9.49908L8.98485 9.5H9C9.68571 9.5 10.4398 10.0518 11.0714 10.9925C11.6872 11.9096 12.0822 13.0501 12.1189 13.9394L12.122 14.0919V14.8369C12.122 15.3897 11.73 15.7943 11.2935 15.8336L11.2097 15.8369H1.40244C0.957891 15.8369 0.544234 15.4629 0.503229 14.9223L0.5 14.8283V14.0869C0.5 13.1826 0.840034 12.02 1.4061 11.0764C1.98634 10.1091 2.70266 9.53026 3.37681 9.49948L3.37681 9.4995L3.38155 9.49924L6.3096 9.33775L8.96973 9.49908ZM6.31098 1.83691C7.94004 1.83691 9.31707 3.25979 9.31707 5.08691C9.31707 6.91404 7.94004 8.33691 6.31098 8.33691C4.6819 8.33691 3.30488 6.91404 3.30488 5.08691C3.30488 3.25979 4.6819 1.83691 6.31098 1.83691Z" stroke="#D2091E"/>
</g>
</g>
</svg>
