<svg width="18" height="16" viewBox="0 0 18 16" fill="none" xmlns="http://www.w3.org/2000/svg">
<path d="M15.4683 6.21616V6.08652C15.4732 4.78935 15.0373 3.5249 14.2244 2.47898C13.4116 1.43306 12.2648 0.660821 10.9526 0.275754H10.9041C10.2264 0.0807146 9.52023 -0.0119377 8.81184 0.00122965C7.12495 0.088614 5.53698 0.780383 4.37201 1.93535C3.20704 3.09032 2.5529 4.62142 2.54309 6.21616C2.06971 6.37336 1.6597 6.66539 1.36965 7.05195C1.0796 7.43851 0.923828 7.90053 0.923828 8.37423C0.923828 8.84793 1.0796 9.30995 1.36965 9.69651C1.6597 10.0831 2.06971 10.3751 2.54309 10.5323C2.70947 12.0382 3.46314 13.4319 4.65756 14.4424C5.85198 15.4529 7.4018 16.0081 9.00572 15.9999H9.19152C10.7425 15.929 12.2168 15.3417 13.3525 14.3421C14.4883 13.3426 15.2122 11.9955 15.3956 10.5399C15.8746 10.3916 16.2926 10.106 16.5916 9.72292C16.8905 9.33981 17.0555 8.87825 17.0635 8.40249C17.0715 7.92673 16.9221 7.46045 16.6362 7.06858C16.3503 6.67671 15.9421 6.37874 15.4683 6.21616ZM9.15113 14.4748C7.98171 14.5067 6.83952 14.1383 5.93533 13.4375C5.03113 12.7368 4.42595 11.7509 4.23145 10.6619H13.7396C13.5424 11.6928 12.9818 12.6306 12.1488 13.3227C11.3159 14.0149 10.2594 14.4209 9.15113 14.4748ZM14.6605 9.1368H3.35092C3.13667 9.1368 2.93119 9.05645 2.7797 8.91345C2.6282 8.77044 2.54309 8.57647 2.54309 8.37423C2.54309 8.17198 2.6282 7.97802 2.7797 7.83501C2.93119 7.692 3.13667 7.61166 3.35092 7.61166H4.96657C5.18082 7.61166 5.3863 7.53132 5.5378 7.38831C5.68929 7.2453 5.7744 7.05134 5.7744 6.84909C5.7744 6.64685 5.68929 6.45288 5.5378 6.30988C5.3863 6.16687 5.18082 6.08652 4.96657 6.08652H4.15875C4.19491 5.29544 4.43443 4.52455 4.85664 3.84035C5.27886 3.15616 5.87109 2.57921 6.58223 2.1593V4.56139C6.58223 4.76363 6.66734 4.9576 6.81884 5.10061C6.97034 5.24361 7.17581 5.32396 7.39006 5.32396C7.60431 5.32396 7.80978 5.24361 7.96128 5.10061C8.11278 4.9576 8.19789 4.76363 8.19789 4.56139V1.57975C8.41716 1.54516 8.63831 1.52225 8.86031 1.51111H9.00572C9.27644 1.51471 9.54649 1.53766 9.81355 1.57975V4.56139C9.81355 4.76363 9.89866 4.9576 10.0502 5.10061C10.2017 5.24361 10.4071 5.32396 10.6214 5.32396C10.8356 5.32396 11.0411 5.24361 11.1926 5.10061C11.3441 4.9576 11.4292 4.76363 11.4292 4.56139V2.13642C11.7719 2.32373 12.0916 2.54622 12.3824 2.79985C12.8482 3.22682 13.2183 3.73775 13.4709 4.30234C13.7235 4.86693 13.8533 5.47366 13.8527 6.08652H13.0449C12.8306 6.08652 12.6251 6.16687 12.4736 6.30988C12.3221 6.45288 12.237 6.64685 12.237 6.84909C12.237 7.05134 12.3221 7.2453 12.4736 7.38831C12.6251 7.53132 12.8306 7.61166 13.0449 7.61166H14.6605C14.8748 7.61166 15.0802 7.692 15.2317 7.83501C15.3832 7.97802 15.4683 8.17198 15.4683 8.37423C15.4683 8.57647 15.3832 8.77044 15.2317 8.91345C15.0802 9.05645 14.8748 9.1368 14.6605 9.1368Z" fill="white"/>
</svg>
