<svg width="12" height="15" viewBox="0 0 12 15" fill="none" xmlns="http://www.w3.org/2000/svg">
<g id="icone localisation">
<path id="Vector" d="M10.6308 4.9179L10.6307 4.91792L10.6326 4.93061C10.7578 5.74453 10.6331 6.48525 10.2921 7.16733L10.287 7.17749L10.2824 7.18787C9.86768 8.12095 9.38602 9.04903 8.83861 9.90436L8.83859 9.90434L8.83575 9.90888C7.89945 11.407 6.79 12.7982 5.57339 14.2195C5.44181 14.0578 5.31216 13.8994 5.1839 13.7427C4.88374 13.3761 4.59119 13.0187 4.29929 12.6491C3.1116 11.1119 2.0044 9.51833 1.10794 7.79435L1.10795 7.79434L1.10622 7.79108C0.237751 6.15064 0.376766 4.54669 1.05395 3.26005C1.73916 1.95815 2.9731 0.987837 4.27448 0.654094C7.23479 -0.0851191 10.2474 1.91462 10.6308 4.9179ZM3.12341 5.59435C3.12341 6.92151 4.22218 8.06707 5.59613 8.06707C6.93783 8.06707 8.02904 6.92042 8.03361 5.60266C8.07356 4.25695 6.92273 3.12163 5.59613 3.12163C4.26317 3.12163 3.12341 4.2614 3.12341 5.59435Z" stroke="#D2091E"/>
</g>
</svg>
