<svg width="17" height="19" viewBox="0 0 17 19" fill="none" xmlns="http://www.w3.org/2000/svg">
<path d="M4.65496 2.875H2.78939C2.29462 2.875 1.8201 3.07254 1.47024 3.42417C1.12038 3.77581 0.923828 4.25272 0.923828 4.75V16C0.923828 16.4973 1.12038 16.9742 1.47024 17.3258C1.8201 17.6775 2.29462 17.875 2.78939 17.875H13.9828C14.4776 17.875 14.9521 17.6775 15.3019 17.3258C15.6518 16.9742 15.8484 16.4973 15.8484 16V4.75C15.8484 4.25272 15.6518 3.77581 15.3019 3.42417C14.9521 3.07254 14.4776 2.875 13.9828 2.875H12.1172M4.65496 2.875C4.65496 2.37772 4.85151 1.90081 5.20137 1.54917C5.55123 1.19754 6.02575 1 6.52053 1H10.2517C10.7464 1 11.221 1.19754 11.5708 1.54917C11.9207 1.90081 12.1172 2.37772 12.1172 2.875M4.65496 2.875C4.65496 3.37228 4.85151 3.84919 5.20137 4.20083C5.55123 4.55246 6.02575 4.75 6.52053 4.75H10.2517C10.7464 4.75 11.221 4.55246 11.5708 4.20083C11.9207 3.84919 12.1172 3.37228 12.1172 2.875M4.65496 8.5H12.1172H4.65496ZM4.65496 12.25H8.38609H4.65496Z" fill="#3D3D3D"/>
<path d="M4.65496 2.875H2.78939C2.29462 2.875 1.8201 3.07254 1.47024 3.42417C1.12038 3.77581 0.923828 4.25272 0.923828 4.75V16C0.923828 16.4973 1.12038 16.9742 1.47024 17.3258C1.8201 17.6775 2.29462 17.875 2.78939 17.875H13.9828C14.4776 17.875 14.9521 17.6775 15.3019 17.3258C15.6518 16.9742 15.8484 16.4973 15.8484 16V4.75C15.8484 4.25272 15.6518 3.77581 15.3019 3.42417C14.9521 3.07254 14.4776 2.875 13.9828 2.875H12.1172M4.65496 2.875C4.65496 2.37772 4.85151 1.90081 5.20137 1.54917C5.55123 1.19754 6.02575 1 6.52053 1H10.2517C10.7464 1 11.221 1.19754 11.5708 1.54917C11.9207 1.90081 12.1172 2.37772 12.1172 2.875M4.65496 2.875C4.65496 3.37228 4.85151 3.84919 5.20137 4.20083C5.55123 4.55246 6.02575 4.75 6.52053 4.75H10.2517C10.7464 4.75 11.221 4.55246 11.5708 4.20083C11.9207 3.84919 12.1172 3.37228 12.1172 2.875M4.65496 8.5H12.1172M4.65496 12.25H8.38609" stroke="white" stroke-width="1.00363" stroke-linecap="round" stroke-linejoin="round"/>
</svg>
