<svg width="13" height="15" viewBox="0 0 13 15" fill="none" xmlns="http://www.w3.org/2000/svg">
<g id="&#240;&#159;&#166;&#134; icon &#34;folder&#34;">
<path id="Vector" d="M11.1932 12.3125V12.3125H11.187H1.81201V12.3125L1.80587 12.3125C1.52977 12.3159 1.26357 12.2098 1.06557 12.0173C0.868439 11.8257 0.754898 11.5641 0.749512 11.2893V3.71067C0.754898 3.43591 0.868439 3.17429 1.06557 2.98268C1.26357 2.79022 1.52977 2.68407 1.80587 2.68746L1.80587 2.68749H1.81201H4.68473C4.70284 2.68776 4.72068 2.69196 4.73702 2.69981C4.75366 2.70781 4.76832 2.71939 4.77996 2.73373L4.77995 2.73374L4.78118 2.73523L6.40618 4.72273L6.55622 4.90624H6.79326H11.1683V4.90639L11.1805 4.9061C11.3182 4.90273 11.4553 4.92668 11.5838 4.97657C11.7123 5.02646 11.8296 5.1013 11.929 5.19676C12.0284 5.29223 12.1079 5.40643 12.1629 5.53279C12.2175 5.65805 12.2469 5.79279 12.2495 5.92937V11.2893C12.2441 11.5641 12.1306 11.8257 11.9335 12.0173C11.7355 12.2098 11.4693 12.3159 11.1932 12.3125Z" stroke="#D2091E"/>
</g>
</svg>
