<svg width="17" height="18" viewBox="0 0 17 18" fill="none" xmlns="http://www.w3.org/2000/svg">
<path d="M15.8484 7L12.1172 1M15.8484 7L12.1172 6.97101V1M15.8484 7V15C15.8484 15.5304 15.6518 16.0391 15.3019 16.4142C14.9521 16.7893 14.4776 17 13.9828 17H2.78939C2.29462 17 1.8201 16.7893 1.47024 16.4142C1.12038 16.0391 0.923828 15.5304 0.923828 15V3C0.923828 2.46957 1.12038 1.96086 1.47024 1.58579C1.8201 1.21071 2.29462 1 2.78939 1H4.65496H12.1172M4.65496 7L9.28852 6.97101M4.65496 11H8.38609" stroke="white" stroke-width="1.00363" stroke-linecap="round" stroke-linejoin="round"/>
</svg>
