<svg width="17" height="15" viewBox="0 0 17 15" fill="none" xmlns="http://www.w3.org/2000/svg">
<path d="M12.6763 0C12.3156 0.018857 11.9549 0.0565709 11.6143 0.169713C11.0732 0.358283 10.5522 0.641137 10.1114 1.05599C9.98455 1.13166 9.87741 1.23319 9.79788 1.35308C9.71836 1.47297 9.6685 1.60815 9.65198 1.74862C9.63547 1.88909 9.65272 2.03126 9.70246 2.16461C9.7522 2.29796 9.83317 2.41908 9.93936 2.51901C10.0456 2.61895 10.1743 2.69514 10.316 2.74195C10.4577 2.78876 10.6087 2.80499 10.758 2.78945C10.9073 2.7739 11.0509 2.72698 11.1783 2.65215C11.3057 2.57731 11.4136 2.47649 11.494 2.35712C11.7145 2.1497 11.975 2.03655 12.2555 1.94227C12.9568 1.71599 13.8185 1.81027 14.3795 2.35712C15.161 3.09254 15.161 4.31825 14.3795 5.07253L11.3738 7.90107C10.4921 8.73078 9.77074 8.80621 9.24974 8.78735C8.72875 8.7685 8.42817 8.54221 8.42817 8.54221C8.31239 8.4803 8.18478 8.44046 8.05263 8.42496C7.92049 8.40946 7.78639 8.41861 7.658 8.45188C7.52961 8.48515 7.40944 8.54189 7.30435 8.61886C7.19926 8.69584 7.11132 8.79154 7.04553 8.90049C6.97974 9.00945 6.93741 9.12954 6.92094 9.25389C6.90447 9.37825 6.91419 9.50444 6.94954 9.62526C6.98489 9.74608 7.04519 9.85917 7.12698 9.95806C7.20878 10.057 7.31047 10.1397 7.42626 10.2016C7.42626 10.2016 8.10756 10.6165 9.10948 10.673C10.1114 10.7296 11.5141 10.3713 12.7364 9.20221L15.7422 6.37366C17.3051 4.90281 17.3051 2.52684 15.7422 1.07485C15.1811 0.546853 14.5198 0.226284 13.7984 0.0754279C13.4377 0 13.037 0 12.6763 0.018857V0ZM8.66863 4.35596C7.66672 4.31825 6.28407 4.63882 5.10181 5.77024L2.09607 8.59878C0.533081 10.0696 0.533081 12.4456 2.09607 13.8976C3.21821 14.9536 4.82128 15.2553 6.22396 14.7839C6.76499 14.5953 7.28599 14.3124 7.72683 13.8976C7.85367 13.8219 7.96082 13.7204 8.04034 13.6005C8.11986 13.4806 8.16972 13.3454 8.18624 13.205C8.20276 13.0645 8.18551 12.9223 8.13576 12.789C8.08602 12.6556 8.00506 12.5345 7.89886 12.4346C7.79267 12.3346 7.66396 12.2584 7.52226 12.2116C7.38055 12.1648 7.22948 12.1486 7.08021 12.1641C6.93094 12.1797 6.78729 12.2266 6.65989 12.3014C6.53249 12.3763 6.4246 12.4771 6.34419 12.5965C6.12377 12.8039 5.86327 12.917 5.58273 13.0113C4.88139 13.2376 4.01975 13.1433 3.45867 12.5965C2.67718 11.861 2.67718 10.6353 3.45867 9.88106L6.46442 7.05251C7.26595 6.29823 7.96729 6.20395 8.52836 6.2228C9.08944 6.24166 9.47017 6.39252 9.47017 6.39252C9.58757 6.47538 9.72288 6.53296 9.86654 6.56118C10.0102 6.58941 10.1587 6.58759 10.3015 6.55586C10.4443 6.52413 10.578 6.46327 10.6931 6.37756C10.8082 6.29186 10.9018 6.18341 10.9675 6.05989C11.0331 5.93637 11.0691 5.80079 11.0729 5.66273C11.0767 5.52468 11.0482 5.38752 10.9895 5.26096C10.9308 5.1344 10.8432 5.02152 10.7331 4.9303C10.6229 4.83909 10.4927 4.77177 10.3519 4.7331C10.3519 4.7331 9.67055 4.35596 8.66863 4.31825V4.35596Z" fill="white"/>
</svg>
