<svg width="13" height="13" viewBox="0 0 13 13" fill="none" xmlns="http://www.w3.org/2000/svg">
<g id="&#240;&#159;&#166;&#134; icon &#34;refresh reverse&#34;">
<path id="Vector" d="M2.63612 8.95905L3.65882 9.28222C3.73941 9.30765 3.82406 9.31646 3.90795 9.30813C3.99184 9.29979 4.07331 9.27449 4.14772 9.23366C4.22213 9.19283 4.28803 9.13727 4.34164 9.07016C4.39524 9.00304 4.43552 8.92568 4.46017 8.8425C4.48481 8.75932 4.49334 8.67195 4.48527 8.58536C4.4772 8.49878 4.45268 8.41469 4.41312 8.33788C4.37356 8.26108 4.31973 8.19307 4.25471 8.13774C4.18969 8.0824 4.11474 8.04083 4.03415 8.0154L1.58006 7.2406C1.49943 7.21516 1.41473 7.20637 1.33081 7.21473C1.24688 7.2231 1.16538 7.24846 1.09096 7.28935C1.01653 7.33025 0.950649 7.38589 0.897072 7.45309C0.843496 7.52029 0.803277 7.59772 0.778716 7.68098L0.0280541 10.214C-0.0217179 10.3819 -0.00479576 10.5635 0.0750978 10.7186C0.154991 10.8737 0.291312 10.9897 0.454071 11.0411C0.616829 11.0924 0.792693 11.075 0.942975 10.9925C1.09326 10.91 1.20565 10.7693 1.25542 10.6014L1.53772 9.6471C3.08267 12.1033 6.14755 13.1595 8.86854 12.0086C9.68227 11.6643 10.413 11.1402 11.0094 10.473C11.6057 9.80592 12.0532 9.01201 12.3203 8.14718C12.3477 8.06387 12.3587 7.97576 12.3527 7.88801C12.3468 7.80025 12.3239 7.7146 12.2855 7.63607C12.2471 7.55753 12.1939 7.48768 12.1291 7.43059C12.0642 7.3735 11.989 7.33032 11.9078 7.30358C11.8266 7.27683 11.741 7.26705 11.6561 7.2748C11.5712 7.28256 11.4887 7.3077 11.4133 7.34875C11.3379 7.38981 11.2712 7.44595 11.2171 7.51391C11.163 7.58186 11.1225 7.66027 11.0981 7.74455C10.827 8.62306 10.3207 9.40454 9.63773 9.99874C8.95472 10.5929 8.1228 10.9756 7.23804 11.1026C6.35329 11.2296 5.45177 11.0957 4.63759 10.7164C3.82341 10.3371 3.12913 9.7279 2.63612 8.95905ZM10.545 3.53219L9.40619 3.23882C9.32373 3.21548 9.23758 3.20939 9.15281 3.22091C9.06803 3.23242 8.98634 3.26131 8.91254 3.30587C8.83874 3.35044 8.77431 3.40978 8.72304 3.48041C8.67177 3.55104 8.6347 3.63154 8.614 3.71716C8.59331 3.80279 8.5894 3.89183 8.60252 3.97904C8.61563 4.06625 8.6455 4.14987 8.69038 4.225C8.73525 4.30012 8.79422 4.36523 8.86382 4.41649C8.93342 4.46776 9.01224 4.50415 9.09566 4.52353L11.433 5.12548C11.5548 5.18528 11.6917 5.20382 11.8243 5.17846C11.9521 5.16111 12.0719 5.10446 12.168 5.01587C12.2641 4.92728 12.3322 4.81087 12.3633 4.6818L12.9843 2.11239C13.0211 1.94364 12.9925 1.76672 12.9045 1.61948C12.8166 1.47224 12.6763 1.36636 12.5137 1.32449C12.3511 1.28262 12.1791 1.30808 12.0344 1.39542C11.8898 1.48277 11.784 1.62506 11.7397 1.79188L11.5279 2.66733C10.9102 1.74978 10.0641 1.02119 9.07885 0.558289C8.09359 0.095393 7.0056 -0.0846634 5.92952 0.0370885C4.85343 0.15884 3.82908 0.577893 2.96436 1.2501C2.09965 1.92231 1.4266 2.82279 1.0161 3.85667L0.849291 4.27652C0.817358 4.357 0.801097 4.44319 0.801436 4.53016C0.801775 4.61713 0.818707 4.70318 0.851266 4.7834C0.883825 4.86362 0.931373 4.93643 0.991195 4.99768C1.05102 5.05893 1.12194 5.10742 1.19992 5.14038C1.3574 5.20694 1.53406 5.20621 1.69102 5.13834C1.76873 5.10474 1.83928 5.05566 1.89862 4.99391C1.95796 4.93217 2.00494 4.85896 2.03688 4.77848L2.20369 4.3593C2.53074 3.53562 3.06951 2.81976 3.76187 2.28897C4.45422 1.75819 5.27386 1.43264 6.13235 1.34744C6.99083 1.26225 7.85556 1.42065 8.63321 1.80556C9.41086 2.19046 10.0719 2.78791 10.545 3.53219Z" fill="white"/>
</g>
</svg>
