<svg width="15" height="12" viewBox="0 0 15 12" fill="none" xmlns="http://www.w3.org/2000/svg">
<g id="&#240;&#159;&#166;&#134; icon &#34;truck&#34;">
<path id="Vector" d="M13.75 8.25V8.75H14.25H14.5V9.25H13.5H13V9.75C13 10.716 12.216 11.5 11.25 11.5C10.284 11.5 9.5 10.716 9.5 9.75V9.25H9H6H5.5V9.75C5.5 10.716 4.71604 11.5 3.75 11.5C2.78395 11.5 2 10.716 2 9.75V9.25H1.5H1.125C0.780049 9.25 0.5 8.96995 0.5 8.625V1.125C0.5 0.780049 0.780049 0.5 1.125 0.5H8.625C8.96995 0.5 9.25 0.780049 9.25 1.125V2.25V2.75H9.75H10.7836C10.9472 2.75 11.1064 2.81586 11.2246 2.93402L13.566 5.27543C13.6841 5.39359 13.75 5.55275 13.75 5.71641V8.25ZM13.125 6.5H13.625V6V5.71641V5.5093L13.4786 5.36285L11.1371 3.02145L10.9907 2.875H10.7836H9.75H9.25V3.375V6V6.5H9.75H13.125ZM2.125 9.75C2.125 10.6472 2.85276 11.375 3.75 11.375C4.64724 11.375 5.375 10.6472 5.375 9.75C5.375 8.85277 4.64724 8.125 3.75 8.125C2.85276 8.125 2.125 8.85277 2.125 9.75ZM9.625 9.75C9.625 10.6472 10.3528 11.375 11.25 11.375C12.1472 11.375 12.875 10.6472 12.875 9.75C12.875 8.85277 12.1472 8.125 11.25 8.125C10.3528 8.125 9.625 8.85277 9.625 9.75Z" stroke="#D2091E"/>
</g>
</svg>
