<svg width="14" height="15" viewBox="0 0 14 15" fill="none" xmlns="http://www.w3.org/2000/svg">
<g id="&#240;&#159;&#166;&#134; icon &#34;Address Book&#34;">
<path id="Vector" d="M11.6875 2.8125V3.3125H12.1875H12.625V4.1875H12.1875H11.6875V4.6875V6.5625V7.0625H12.1875H12.625V7.9375H12.1875H11.6875V8.4375V10.3125V10.8125H12.1875H12.625V11.6875H12.1875H11.6875V12.1875V13.5938C11.6875 14.094 11.2815 14.5 10.7812 14.5H1.40625C0.906025 14.5 0.5 14.094 0.5 13.5938V1.40625C0.5 0.906025 0.906025 0.5 1.40625 0.5H10.7812C11.2815 0.5 11.6875 0.906025 11.6875 1.40625V2.8125ZM5.11924 7.97563L5.02728 7.9375H4.92773H4.78125C3.49328 7.9375 2.3125 8.84768 2.3125 10.125V10.6875C2.3125 11.3433 2.9039 11.75 3.46875 11.75H8.71875C9.2836 11.75 9.875 11.3433 9.875 10.6875V10.125C9.875 8.84768 8.69422 7.9375 7.40625 7.9375H7.25977H7.15946L7.06692 7.97619C6.76821 8.10106 6.43811 8.17188 6.09375 8.17188C5.75011 8.17188 5.42242 8.10134 5.11924 7.97563ZM8.46875 5.625C8.46875 4.31468 7.40407 3.25 6.09375 3.25C4.78343 3.25 3.71875 4.31468 3.71875 5.625C3.71875 6.93532 4.78343 8 6.09375 8C7.40407 8 8.46875 6.93532 8.46875 5.625Z" stroke="#D2091E"/>
</g>
</svg>
